# AST/ASF file generated using VICON BodyLanguage
# -----------------------------------------------
:version 1.10
:name VICON
:units
  mass 1.0
  length 0.45
  angle deg
:documentation
   .ast/.asf automatically generated from VICON data using
   VICON BodyBuilder and BodyLanguage model FoxedUp or BRILLIANT.MOD
:root
   order TX TY TZ RX RY RZ
   axis XYZ
   position 0 0 0  
   orientation 0 0 0 
:bonedata
  begin
     id 1 
     name lhipjoint
     direction 0.627457 -0.725269 0.283342 
     length 2.53237 
     axis 0 0 0  XYZ
  end
  begin
     id 2 
     name lfemur
     direction 0.34202 -0.939693 0  
     length 7.32496  
     axis 0 0 20  XYZ
    dof rx ry rz
    limits (-160.0 20.0)
           (-70.0 70.0)
           (-60.0 70.0)
  end
  begin
     id 3 
     name ltibia
     direction 0.34202 -0.939693 0   
     length 7.69674   
     axis 0 0 20   XYZ
    dof rx
    limits (-10.0 170.0)
  end
  begin
     id 4 
     name lfoot
     direction 0.127289 -0.349722 0.928166   
     length 1.8612   
     axis -90 7.62852e-016 20   XYZ
    dof rx rz
    limits (-45.0 90.0)
           (-70.0 20.0)
  end
  begin
     id 5 
     name ltoes
     direction 1.53561e-011 -4.21864e-011 1   
     length 0.925608   
     axis -90 7.62852e-016 20   XYZ
    dof rx
    limits (-90.0 20.0)
  end
  begin
     id 6 
     name rhipjoint
     direction -0.609094 -0.738725 0.288599   
     length 2.48624  
     axis 0 0 0  XYZ 
  end
  begin
     id 7 
     name rfemur
     direction -0.34202 -0.939693 0   
     length 7.44259   
     axis 0 0 -20   XYZ
    dof rx ry rz
    limits (-160.0 20.0)
           (-70.0 70.0)
           (-70.0 60.0)
  end
  begin
     id 8 
     name rtibia
     direction -0.34202 -0.939693 0   
     length 7.7781   
     axis 0 0 -20   XYZ
    dof rx
    limits (-10.0 170.0)
 end
 begin
     id 9 
     name rfoot
     direction -0.107015 -0.294021 0.949789   
     length 2.14741  
     axis -90 -7.62852e-016 -20   XYZ
    dof rx rz
    limits (-45.0 90.0)
           (-20.0 70.0)
  end
  begin
     id 10 
     name rtoes
     direction -1.53497e-011 -4.21924e-011 1   
     length 1.0706   
     axis -90 -7.62852e-016 -20   XYZ
    dof rx
    limits (-90.0 20.0)
  end
  begin
     id 11 
     name lowerback
     direction -0.0142066 0.998112 -0.0597545   
     length 1.86627   
     axis 0 0 0   XYZ
    dof rx ry rz
    limits (-20.0 45.0)
           (-30.0 30.0)
           (-30.0 30.0)
  end
  begin
     id 12 
     name upperback
     direction 0.00547294 0.999744 0.0219437   
     length 1.86272   
     axis 0 0 0   XYZ
    dof rx ry rz
    limits (-20.0 45.0)
           (-30.0 30.0)
           (-30.0 30.0)
  end
  begin
     id 13 
     name thorax
     direction 0.0116162 0.998704 0.0495538   
     length 1.8703   
     axis 0 0 0   XYZ
    dof rx ry rz
    limits (-20.0 45.0)
           (-30.0 30.0)
           (-30.0 30.0)
  end
  begin
     id 14 
     name lowerneck
     direction -0.0106574 0.998739 0.0490586   
     length 1.8074   
     axis 0 0 0   XYZ
    dof rx ry rz
    limits (-20.0 45.0)
           (-30.0 30.0)
           (-30.0 30.0)
  end
  begin
     id 15 
     name upperneck
     direction 0.030527 0.976587 -0.212944   
     length 1.80681   
     axis 0 0 0   XYZ
    dof rx ry rz
    limits (-20.0 45.0)
           (-30.0 30.0)
           (-30.0 30.0)
  end
  begin
     id 16
     name head
     direction 0.00869225 0.997035 -0.0764531  
     length 1.8313  
     axis 0 0 0   XYZ
    dof rx ry rz
    limits (-20.0 45.0)
           (-30.0 30.0)
           (-30.0 30.0)
  end
  begin
     id 17 
     name lclavicle
     direction 0.915958 0.399447 0.0382386  
     length 3.78965  
     axis 0 0 0   XYZ
    dof ry rz
    limits (-20.0 10.0)
           (0.0 20.0)
  end
  begin
     id 18 
     name lhumerus
     direction 1 -4.48967e-011 3.19303e-027   
     length 4.78095   
     axis -180 -30 -90   XYZ
    dof rx ry rz
    limits (-60.0 90.0)
           (-90.0 90.0)
           (-90.0 90.0)
  end
  begin
     id 19
     name lradius
     direction 1 -4.48967e-011 -3.77974e-027   
     length 3.58615   
     axis -180 -30 -90   XYZ
    dof rx
    limits (-10.0 170.0)
  end
  begin
     id 20
     name lwrist
     direction 1 -4.48927e-011 1.2807e-027   
     length 1.79307   
     axis 1.91374e-015 90 90   XYZ
    dof ry
    limits (-180.0 0.0)
 end
  begin
     id 21 
     name lhand
     direction 1 -4.49036e-011 2.5614e-027   
     length 0.659812   
     axis -1.63439e-015 90 90   XYZ
    dof rx rz
    limits (-90.0 90.0)
           (-45.0 45.0)
  end
  begin
     id 22 
     name lfingers
     direction 1 -4.49052e-011 5.1228e-027   
     length 0.531957   
     axis -3.26879e-015 90 90   XYZ
    dof rx
    limits (0.0 90.0)
  end
  begin
     id 23
     name lthumb
     direction 0.707107 -6.35012e-011 0.707107   
     length 0.763787   
     axis -90 45 2.85299e-015   XYZ
    dof rx rz
    limits (-45.0 45.0)
           (-45.0 45.0)
  end
  begin
     id 24 
     name rclavicle
     direction -0.895351 0.435135 0.0948887   
     length 3.70497  
     axis 0 0 0   XYZ 
    dof ry rz
    limits (-10.0 20.0)
           (-20.0 0.0)
  end
  begin
     id 25 
     name rhumerus
     direction -1 -4.48971e-011 2.38946e-027  
     length 4.48913   
     axis -180 30 90   XYZ
    dof rx ry rz
    limits (-90.0 60.0)
           (-90.0 90.0)
           (-90.0 90.0)
  end
  begin
     id 26 
     name rradius
     direction -1 -4.4895e-011 4.38668e-027   
     length 3.7051   
     axis -180 30 90   XYZ
    dof rx
    limits (-10.0 170.0)
  end
  begin
     id 27 
     name rwrist
     direction -1 -4.49007e-011 1.2807e-027   
     length 1.85255   
     axis 1.91374e-015 -90 -90   XYZ
    dof ry
    limits (-180.0 0.0)
  end
  begin
     id 28
     name rhand
     direction -1 -4.48851e-011 2.5614e-027   
     length 0.449136   
     axis -1.63439e-015 -90 -90   XYZ
    dof rx rz
    limits (-90.0 90.0)
           (-45.0 45.0)
  end
  begin
     id 29
     name rfingers
     direction -1 -4.49128e-011 5.1228e-027   
     length 0.362105   
     axis -3.26879e-015 -90 -90   XYZ
    dof rx
    limits (0.0 90.0)
  end
  begin
     id 30
     name rthumb
     direction -0.707107 -6.34851e-011 0.707107   
     length 0.519912   
     axis -90 -45 -2.85299e-015   XYZ
    dof rx rz
    limits (-45.0 45.0)
           (-45.0 45.0)
  end
:hierarchy
  begin
    root lhipjoint rhipjoint lowerback
    lhipjoint lfemur
    lfemur ltibia
    ltibia lfoot
    lfoot ltoes
    rhipjoint rfemur
    rfemur rtibia
    rtibia rfoot
    rfoot rtoes
    lowerback upperback
    upperback thorax
    thorax lowerneck lclavicle rclavicle
    lowerneck upperneck
    upperneck head
    lclavicle lhumerus
    lhumerus lradius
    lradius lwrist
    lwrist lhand lthumb
    lhand lfingers
    rclavicle rhumerus
    rhumerus rradius
    rradius rwrist
    rwrist rhand rthumb
    rhand rfingers
  end

#!OML:ASF I:\Actors\actors\Patient Classification 2\Patient 1\Session 1\actor1.ASF
:FULLY-SPECIFIED
:DEGREES
28
root -0.771342 18.6628 6.0986 0.50067 -3.16714 -3.34263
lowerback 0.771317 1.0354 0.404346
upperback -0.853886 1.39868 1.01814
thorax -1.32208 0.700382 0.78898
lowerneck -9.08354 -0.882489 -1.15901
upperneck 18.4399 -1.47451 2.3594
head 7.16387 -0.581358 0.827827
rclavicle -1.05915e-015 -5.76476e-015
rhumerus -47.711 1.02461 -89.6493
rradius 41.1833
rwrist 19.0694
rhand -6.68878 -27.5618
rfingers 7.12502
rthumb 19.1701 -56.637
lclavicle -1.05915e-015 -5.76476e-015
lhumerus -40.0867 -0.66693 93.0582
lradius 35.7882
lwrist -13.2359
lhand -1.82675 -24.4461
lfingers 7.12502
lthumb 23.8396 4.09455
rfemur 8.96787 -5.6817 16.5952
rtibia 4.77083e-015
rfoot -12.6689 -4.49965
rtoes -7.5583
lfemur -3.48547 -7.2023 -11.6671
ltibia 22.873
lfoot -23.835 13.9476
ltoes -55.6718
29
root -0.771716 18.6631 6.09937 0.500577 -3.15946 -3.33918
lowerback 0.750622 1.02658 0.375684
upperback -0.826874 1.38624 1.03821
thorax -1.28384 0.69452 0.826518
lowerneck -9.12135 -0.871692 -1.1941
upperneck 18.4162 -1.452 2.35414
head 7.16265 -0.573281 0.83379
rclavicle 1.85615e-014 4.37326e-015
rhumerus -47.6552 1.03837 -89.6134
rradius 41.1696
rwrist 19.0875
rhand -6.66237 -27.5372
rfingers 7.12502
rthumb 19.1955 -56.6099
lclavicle 1.85615e-014 4.37326e-015
lhumerus -40.0555 -0.702272 93.0949
lradius 35.8061
lwrist -13.1634
lhand -1.83828 -24.4129
lfingers 7.12502
lthumb 23.8285 4.12919
rfemur 8.96844 -5.68958 16.594
rtibia -1.74931e-014
rfoot -12.6786 -4.50778
rtoes -7.6729
lfemur -3.48693 -7.15383 -11.6636
ltibia 22.8782
lfoot -23.8069 13.9125
ltoes -55.6901
30
root -0.771901 18.6624 6.10116 0.482039 -3.1521 -3.31901
lowerback 0.746384 1.01666 0.332735
upperback -0.807054 1.37234 1.05243
thorax -1.26235 0.688019 0.865684
lowerneck -9.14956 -0.860345 -1.2286
upperneck 18.4194 -1.43223 2.36335
head 7.16864 -0.565141 0.844206
rclavicle 1.13121e-014 8.74653e-015
rhumerus -47.6285 1.11016 -89.6147
rradius 41.1724
rwrist 19.0216
rhand -6.63045 -27.5819
rfingers 7.12502
rthumb 19.2262 -56.6515
lclavicle 1.13121e-014 8.74653e-015
lhumerus -40.0187 -0.662355 93.107
lradius 35.7777
lwrist -13.1665
lhand -1.82703 -24.4266
lfingers 7.12502
lthumb 23.8393 4.11413
rfemur 8.99871 -5.69563 16.5673
rtibia -1.27222e-014
rfoot -12.6815 -4.48858
rtoes -7.4722
lfemur -3.47006 -7.15223 -11.6867
ltibia 22.8912
lfoot -23.8271 13.8829
ltoes -55.6535
31
root -0.771633 18.6615 6.10159 0.468602 -3.16081 -3.32706
lowerback 0.768737 1.01604 0.33678
upperback -0.811406 1.37194 1.06163
thorax -1.27948 0.68784 0.872368
lowerneck -9.1328 -0.861446 -1.2536
upperneck 18.4216 -1.43087 2.36935
head 7.16654 -0.565797 0.850502
rclavicle 7.32397e-015 5.96354e-016
rhumerus -47.6397 1.16791 -89.6309
rradius 41.1782
rwrist 18.9744
rhand -6.67286 -27.684
rfingers 7.12502
rthumb 19.1854 -56.7577
lclavicle 7.32397e-015 5.96354e-016
lhumerus -40.0202 -0.642822 93.1118
lradius 35.746
lwrist -13.1672
lhand -1.84454 -24.4593
lfingers 7.12502
lthumb 23.8225 4.08366
rfemur 9.01814 -5.6858 16.5711
rtibia -2.54444e-014
rfoot -12.6948 -4.46463
rtoes -7.21661
lfemur -3.45693 -7.17041 -11.6819
ltibia 22.8992
lfoot -23.846 13.8862
ltoes -55.6133
32
root -0.771292 18.6617 6.10161 0.47485 -3.17126 -3.34743
lowerback 0.783274 1.01441 0.365896
upperback -0.823424 1.37048 1.06324
thorax -1.29928 0.686858 0.857328
lowerneck -9.10973 -0.863363 -1.27868
upperneck 18.4187 -1.43437 2.39502
head 7.16187 -0.567141 0.862765
rclavicle -7.60662e-015 5.36719e-015
rhumerus -47.6475 1.1837 -89.6438
rradius 41.1693
rwrist 18.9609
rhand -6.74197 -27.6698
rfingers 7.12502
rthumb 19.119 -56.7501
lclavicle -7.60662e-015 5.36719e-015
lhumerus -40.0365 -0.628734 93.0985
lradius 35.7459
lwrist -13.1843
lhand -1.85067 -24.4407
lfingers 7.12502
lthumb 23.8166 4.10303
rfemur 9.01073 -5.67551 16.592
rtibia 1.90833e-014
rfoot -12.7189 -4.45371
rtoes -7.17381
lfemur -3.45129 -7.16925 -11.6613
ltibia 22.8904
lfoot -23.8243 13.8713
ltoes -55.5613
33
root -0.771278 18.6618 6.10253 0.492265 -3.17286 -3.36879
lowerback 0.777464 1.01288 0.40683
upperback -0.835731 1.36893 1.0519
thorax -1.30737 0.685648 0.82281
lowerneck -9.10971 -0.865124 -1.28521
upperneck 18.4236 -1.44346 2.43482
head 7.16397 -0.568451 0.875974
rclavicle -6.37353e-015 -9.54166e-015
rhumerus -47.6489 1.17171 -89.6649
rradius 41.154
rwrist 18.948
rhand -6.7773 -27.564
rfingers 7.12502
rthumb 19.085 -56.6476
lclavicle -6.37353e-015 -9.54166e-015
lhumerus -40.0535 -0.627513 93.0624
lradius 35.7548
lwrist -13.2121
lhand -1.81912 -24.4387
lfingers 7.12502
lthumb 23.8469 4.10099
rfemur 8.99619 -5.67485 16.6168
rtibia 4.77083e-015
rfoot -12.7103 -4.4656
rtoes -7.22856
lfemur -3.45297 -7.17882 -11.6362
ltibia 22.881
lfoot -23.8387 13.8163
ltoes -55.4653
34
root -0.771283 18.6618 6.1034 0.514079 -3.18025 -3.36624
lowerback 0.750453 1.01967 0.41122
upperback -0.836943 1.37766 1.04181
thorax -1.29321 0.689919 0.81036
lowerneck -9.11869 -0.876861 -1.27196
upperneck 18.4208 -1.46226 2.4376
head 7.16498 -0.576269 0.872963
rclavicle -1.73937e-016 5.96354e-015
rhumerus -47.6434 1.14065 -89.6665
rradius 41.1587
rwrist 18.9663
rhand -6.71083 -27.5402
rfingers 7.12502
rthumb 19.1489 -56.6175
lclavicle -1.73937e-016 5.96354e-015
lhumerus -40.0459 -0.617377 93.0348
lradius 35.7437
lwrist -13.2515
lhand -1.72192 -24.5133
lfingers 7.12502
lthumb 23.9401 4.01423
rfemur 8.97845 -5.66876 16.6161
rtibia -4.77083e-015
rfoot -12.688 -4.4845
rtoes -7.32647
lfemur -3.47103 -7.16542 -11.636
ltibia 22.8816
lfoot -23.8788 13.8189
ltoes -55.5187
35
root -0.770382 18.6619 6.10434 0.515397 -3.19891 -3.34934
lowerback 0.727709 1.02828 0.402696
upperback -0.831731 1.38862 1.03336
thorax -1.27522 0.695436 0.806787
lowerneck -9.0761 -0.884264 -1.23504
upperneck 18.3839 -1.47199 2.40542
head 7.14514 -0.581731 0.855537
rclavicle -5.83309e-015 -6.55989e-015
rhumerus -47.6684 1.10225 -89.6605
rradius 41.1921
rwrist 19.0151
rhand -6.63358 -27.5629
rfingers 7.12502
rthumb 19.2232 -56.6328
lclavicle -5.83309e-015 -6.55989e-015
lhumerus -40.0655 -0.63548 93.0394
lradius 35.768
lwrist -13.2276
lhand -1.61003 -24.5372
lfingers 7.12502
lthumb 24.0474 3.97619
rfemur 8.97427 -5.6501 16.5955
rtibia 7.95139e-015
rfoot -12.6783 -4.48879
rtoes -7.37902
lfemur -3.47272 -7.13853 -11.662
ltibia 22.8871
lfoot -23.8693 13.903
ltoes -55.6827
36
root -0.769514 18.6623 6.10501 0.506642 -3.21429 -3.37122
lowerback 0.738646 1.02707 0.437097
upperback -0.837985 1.38772 1.03933
thorax -1.28709 0.69469 0.793369
lowerneck -9.03208 -0.87955 -1.22499
upperneck 18.3785 -1.468 2.40852
head 7.13546 -0.57922 0.855341
rclavicle -1.46014e-014 -4.57205e-015
rhumerus -47.7049 1.12077 -89.6729
rradius 41.2108
rwrist 19.0192
rhand -6.65675 -27.5451
rfingers 7.12502
rthumb 19.2009 -56.6173
lclavicle -1.46014e-014 -4.57205e-015
lhumerus -40.1283 -0.680096 93.067
lradius 35.8412
lwrist -13.1629
lhand -1.65246 -24.485
lfingers 7.12502
lthumb 24.0067 4.03378
rfemur 8.97597 -5.63404 16.6171
rtibia 4.6118e-014
rfoot -12.6793 -4.48737
rtoes -7.28555
lfemur -3.46272 -7.14984 -11.647
ltibia 22.9008
lfoot -23.872 13.9467
ltoes -55.6759
37
root -0.76994 18.6629 6.10524 0.524578 -3.20732 -3.41609
lowerback 0.727735 1.01648 0.469421
upperback -0.835319 1.37419 1.06727
thorax -1.27803 0.687765 0.80437
lowerneck -9.05334 -0.865309 -1.25316
upperneck 18.403 -1.44804 2.42919
head 7.14708 -0.569484 0.868507
rclavicle -2.09159e-014 -7.35503e-015
rhumerus -47.6934 1.17511 -89.6725
rradius 41.211
rwrist 18.9977
rhand -6.68284 -27.492
rfingers 7.12502
rthumb 19.1758 -56.5667
lclavicle -2.09159e-014 -7.35503e-015
lhumerus -40.131 -0.672705 93.0852
lradius 35.8745
lwrist -13.1794
lhand -1.74674 -24.4493
lfingers 7.12502
lthumb 23.9163 4.08135
rfemur 8.96078 -5.64195 16.6688
rtibia 1.43125e-014
rfoot -12.6961 -4.47803
rtoes -7.31802
lfemur -3.48536 -7.16602 -11.593
ltibia 22.924
lfoot -23.9045 13.9204
ltoes -55.5987
38
root -0.770223 18.6633 6.10596 0.542939 -3.18341 -3.40969
lowerback 0.694253 1.0042 0.445921
upperback -0.824199 1.35706 1.0747
thorax -1.24839 0.679465 0.826217
lowerneck -9.07885 -0.848947 -1.21089
upperneck 18.4014 -1.42107 2.37021
head 7.14988 -0.558628 0.844624
rclavicle 6.73694e-015 -7.95139e-016
rhumerus -47.6783 1.17495 -89.6634
rradius 41.2197
rwrist 19.0251
rhand -6.6271 -27.4669
rfingers 7.12502
rthumb 19.2294 -56.5362
lclavicle 6.73694e-015 -7.95139e-016
lhumerus -40.0964 -0.652246 93.0812
lradius 35.855
lwrist -13.2083
lhand -1.76422 -24.431
lfingers 7.12502
lthumb 23.8995 4.10186
rfemur 8.9535 -5.66681 16.6627
rtibia -1.74931e-014
rfoot -12.7066 -4.46483
rtoes -7.48288
lfemur -3.51536 -7.15193 -11.5939
ltibia 22.94
lfoot -23.8866 13.8813
ltoes -55.6301
39
root -0.769915 18.6634 6.10661 0.544275 -3.17499 -3.37414
lowerback 0.684566 1.00241 0.419161
upperback -0.825386 1.35407 1.05854
thorax -1.24436 0.678138 0.824885
lowerneck -9.05845 -0.854462 -1.17249
upperneck 18.3848 -1.42727 2.3304
head 7.14047 -0.56269 0.824781
rclavicle -2.21459e-015 5.56597e-015
rhumerus -47.6892 1.15009 -89.6675
rradius 41.2232
rwrist 19.051
rhand -6.56622 -27.5415
rfingers 7.12502
rthumb 19.288 -56.605
lclavicle -2.21459e-015 5.56597e-015
lhumerus -40.111 -0.676503 93.0779
lradius 35.8575
lwrist -13.1781
lhand -1.79215 -24.4633
lfingers 7.12502
lthumb 23.8727 4.07302
rfemur 8.95493 -5.67532 16.6225
rtibia 1.74931e-014
rfoot -12.6909 -4.46109
rtoes -7.37942
lfemur -3.5231 -7.13112 -11.6318
ltibia 22.9423
lfoot -23.8603 13.8457
ltoes -55.6445
40
root -0.770037 18.6631 6.10728 0.550715 -3.19395 -3.36357
lowerback 0.67172 1.01953 0.434244
upperback -0.840062 1.37694 1.0421
thorax -1.25169 0.689359 0.799284
lowerneck -9.01403 -0.87565 -1.20488
upperneck 18.3795 -1.46014 2.37721
head 7.13204 -0.576924 0.84259
rclavicle -1.19116e-014 -5.76476e-015
rhumerus -47.7293 1.13229 -89.6807
rradius 41.2311
rwrist 19.0455
rhand -6.54285 -27.5419
rfingers 7.12502
rthumb 19.3104 -56.6031
lclavicle -1.19116e-014 -5.76476e-015
lhumerus -40.1533 -0.741587 93.0872
lradius 35.8675
lwrist -13.1279
lhand -1.83488 -24.5268
lfingers 7.12502
lthumb 23.8318 4.01493
rfemur 8.94431 -5.65687 16.6121
rtibia 1.27222e-014
rfoot -12.6758 -4.4578
rtoes -7.30066
lfemur -3.52099 -7.15953 -11.6491
ltibia 22.942
lfoot -23.8985 13.885
ltoes -55.6265
41
root -0.770063 18.6627 6.10829 0.562774 -3.21103 -3.36531
lowerback 0.660639 1.03038 0.452089
upperback -0.857849 1.39161 1.03299
thorax -1.26321 0.696494 0.779722
lowerneck -8.97633 -0.874142 -1.21259
upperneck 18.3699 -1.46175 2.40323
head 7.12248 -0.576266 0.852265
rclavicle 3.3576e-015 -3.77691e-015
rhumerus -47.758 1.12956 -89.7022
rradius 41.2356
rwrist 19.0392
rhand -6.53855 -27.4626
rfingers 7.12502
rthumb 19.3146 -56.5234
lclavicle 3.3576e-015 -3.77691e-015
lhumerus -40.1824 -0.784128 93.0941
lradius 35.8645
lwrist -13.0854
lhand -1.75378 -24.5278
lfingers 7.12502
lthumb 23.9095 4.00376
rfemur 8.93254 -5.64051 16.615
rtibia 1.59028e-015
rfoot -12.6838 -4.45472
rtoes -7.40146
lfemur -3.52676 -7.17842 -11.6527
ltibia 22.9422
lfoot -23.9192 13.9402
ltoes -55.641
